<svg xmlns="http://www.w3.org/2000/svg" viewBox="0 0 16 16" width="16" height="16" fill="none">
  <path fill="#c8a855" fill-opacity="0.65" d="M4.265 12.58Q2.897 12.265 2.15 11.343Q1.403 10.42 1.403 9.061V7.45Q1.403 6.1 2.15 5.182Q2.897 4.264 4.265 3.94V5.056Q3.464 5.245 3.001 5.889Q2.537 6.532 2.537 7.45V9.061Q2.537 9.979 3.001 10.622Q3.464 11.266 4.265 11.455Z M11.735 12.58V11.455Q12.536 11.266 12.999 10.622Q13.463 9.979 13.463 9.061V7.45Q13.463 6.532 12.999 5.889Q12.536 5.245 11.735 5.056V3.94Q13.103 4.264 13.85 5.182Q14.597 6.1 14.597 7.45V9.061Q14.597 10.42 13.85 11.343Q13.103 12.265 11.735 12.58Z"/>
  <path fill="#1a1a1a" d="M7.793 11.581Q6.911 11.581 6.398 11.18Q5.885 10.78 5.885 10.096H6.992Q6.992 10.384 7.204 10.537Q7.415 10.69 7.793 10.69H8.189Q8.594 10.69 8.814 10.537Q9.035 10.384 9.035 10.096Q9.035 9.826 8.882 9.695Q8.729 9.565 8.414 9.52L7.181 9.358Q6.587 9.277 6.268 8.899Q5.948 8.521 5.948 7.918Q5.948 7.216 6.416 6.843Q6.884 6.469 7.766 6.469H8.18Q9.008 6.469 9.512 6.847Q10.016 7.225 10.034 7.855H8.918Q8.909 7.621 8.711 7.482Q8.513 7.342 8.18 7.342H7.766Q7.406 7.342 7.217 7.491Q7.028 7.639 7.028 7.891Q7.028 8.116 7.167 8.224Q7.307 8.332 7.577 8.359L8.738 8.521Q9.422 8.602 9.768 9.003Q10.115 9.403 10.115 10.078Q10.115 10.798 9.624 11.189Q9.134 11.581 8.189 11.581Z"/>
</svg>
